<svg width="32" height="32" viewBox="0 0 32 32" fill="none" xmlns="http://www.w3.org/2000/svg">
<g clip-path="url(#clip0)">
<path d="M12.3333 21.3333H2.33325C1.04663 21.3333 0 22.3799 0 23.6667V29.6667C0 30.9534 1.04663 32 2.33325 32H12.3333C13.6201 32 14.6667 30.9534 14.6667 29.6667V23.6667C14.6667 22.3799 13.6201 21.3333 12.3333 21.3333ZM2.33325 30C2.14941 30 2 29.8506 2 29.6667V23.6667C2 23.4827 2.14941 23.3333 2.33325 23.3333H12.3333C12.5173 23.3333 12.6667 23.4827 12.6667 23.6667V29.6667C12.6667 29.8506 12.5173 30 12.3333 30H2.33325Z" fill="#000051"/>
<path d="M12.3333 0H2.33325C1.04663 0 0 1.04663 0 2.33325V16.3333C0 17.6201 1.04663 18.6667 2.33325 18.6667H12.3333C13.6201 18.6667 14.6667 17.6201 14.6667 16.3333V2.33325C14.6667 1.04663 13.6201 0 12.3333 0ZM2.33325 16.6667C2.14941 16.6667 2 16.5173 2 16.3333V2.33325C2 2.14941 2.14941 2 2.33325 2H12.3333C12.5173 2 12.6667 2.14941 12.6667 2.33325V16.3333C12.6667 16.5173 12.5173 16.6667 12.3333 16.6667H2.33325Z" fill="#000051"/>
<path d="M29.6668 -3.5604e-05H19.6668C18.3799 -3.5604e-05 17.3333 1.0466 17.3333 2.33322V8.33323C17.3333 9.6201 18.3799 10.6667 19.6668 10.6667H29.6668C30.9534 10.6667 32 9.6201 32 8.33323V2.33322C32 1.0466 30.9534 -3.5604e-05 29.6668 -3.5604e-05V-3.5604e-05ZM19.6668 8.66673C19.4827 8.66673 19.3333 8.51731 19.3333 8.33323V2.33322C19.3333 2.14938 19.4827 1.99997 19.6668 1.99997H29.6668C29.8506 1.99997 30 2.14938 30 2.33322V8.33323C30 8.51731 29.8506 8.66673 29.6668 8.66673H19.6668Z" fill="#000051"/>
<path d="M29.6668 13.3333H19.6668C18.3799 13.3333 17.3333 14.3799 17.3333 15.6667V29.6667C17.3333 30.9534 18.3799 32 19.6668 32H29.6668C30.9534 32 32 30.9534 32 29.6667V15.6667C32 14.3799 30.9534 13.3333 29.6668 13.3333V13.3333ZM19.6668 30C19.4827 30 19.3333 29.8506 19.3333 29.6667V15.6667C19.3333 15.4827 19.4827 15.3333 19.6668 15.3333H29.6668C29.8506 15.3333 30 15.4827 30 15.6667V29.6667C30 29.8506 29.8506 30 29.6668 30H19.6668Z" fill="#000051"/>
</g>
<defs>
<clipPath id="clip0">
<rect width="32" height="32" transform="matrix(1 0 0 -1 0 32)" fill="white"/>
</clipPath>
</defs>
</svg>
