<svg width="760" height="801" viewBox="0 0 760 801" fill="none" xmlns="http://www.w3.org/2000/svg">
<rect x="68" width="692" height="801" fill="#000026"/>
<path fill-rule="evenodd" clip-rule="evenodd" d="M156.495 -437.973C190.583 -440.064 217.503 -321.518 241.228 -220.397C261.673 -133.258 266.084 -10.0145 281.272 93.8529C303.143 243.418 355.349 347.322 349.554 520.403C343.962 687.431 294.258 765.261 256.611 830.466C225.009 885.2 190.759 856.987 156.495 854.778C122.917 852.614 87.4804 888.662 58.6248 817.705C28.6162 743.913 4.46302 614.099 0.363426 470.846C-3.52159 335.091 24.7253 227.43 38.157 102.493C49.7445 -5.28974 54.4205 -122.645 73.572 -210.112C96.3992 -314.366 122.467 -435.885 156.495 -437.973Z" fill="#000026"/>
</svg>
