<svg width="303" height="105" viewBox="0 0 303 105" fill="none" xmlns="http://www.w3.org/2000/svg">
<path d="M195 46.9716L191.598 43.2598L183.549 51.8832L180.417 48.4955L177 52.1916L183.534 59.2598L195 46.9716Z" fill="#00BDFF"/>
<path d="M13.9406 2C11.0778 2.02959 8.29202 2.93062 5.95418 4.5831L6.00344 4.55232C3.63317 6.21249 1.83191 8.56258 0.844726 11.2828C-0.142457 14.0031 -0.267627 16.9615 0.486247 19.7554L0.455458 19.6599V86.4327C0.455458 94.2405 6.75774 100.527 14.5502 100.527C22.3426 100.527 28.6449 94.2405 28.6449 86.4327V72.338H36.311L51.7697 94.4345C52.821 95.9552 54.163 97.2527 55.7181 98.2523C57.2733 99.2519 59.011 99.9338 60.831 100.259C62.651 100.583 64.5172 100.545 66.3222 100.145C68.1272 99.7452 69.8352 98.992 71.3477 97.9289C72.867 96.8781 74.1631 95.5368 75.1613 93.9824C76.1595 92.428 76.8399 90.6913 77.1634 88.8725C77.4868 87.0538 77.4469 85.189 77.0458 83.3857C76.6448 81.5825 75.8905 79.8765 74.8267 78.3663L65.0454 64.3824C69.0713 61.0826 72.3136 56.9293 74.5377 52.2228C76.7618 47.5164 77.9121 42.3745 77.9055 37.169C77.9055 17.7511 62.0313 2.01847 42.6749 2.01847H14.3562L13.9406 2ZM23.4325 5.55908H42.6749C60.1224 5.83309 74.1371 20.1987 73.863 37.6462C73.7925 42.1286 72.771 46.545 70.8662 50.6031C68.9613 54.6612 66.2165 58.2686 62.8133 61.1867L60.9383 58.5235C65.3044 54.79 68.4213 49.8079 69.8691 44.2486C71.3169 38.6892 71.0259 32.8197 69.0355 27.4308C67.0469 22.0398 63.4535 17.3879 58.7397 14.102C54.0258 10.8161 48.4179 9.0541 42.6718 9.05351H26.2834C26.0688 8.68077 25.8387 8.31716 25.5938 7.96362L25.6246 8.01288C24.9927 7.12013 24.2614 6.30208 23.4448 5.57447L23.4325 5.55908ZM27.7151 12.5356H42.6749C56.2893 12.5356 67.3052 23.5515 67.3052 37.1659C67.3091 40.6686 66.5642 44.1316 65.1205 47.3229C63.6767 50.5142 61.5674 53.3599 58.934 55.6695L56.9297 52.8C71.1691 39.7644 61.9635 16.0454 42.6749 16.03H28.1615C28.16 14.8175 28.0037 13.6101 27.6966 12.4371L27.7151 12.5356ZM27.7305 19.5922H42.6749C44.9891 19.6386 47.2715 20.1411 49.3912 21.0711C51.5108 22.001 53.4262 23.34 55.0275 25.0114C56.6289 26.6828 57.8847 28.6537 58.723 30.8113C59.5614 32.9688 59.9658 35.2706 59.913 37.5847C59.8186 42.1319 57.9749 46.4678 54.7653 49.6905L53.7555 48.2619C53.413 47.7572 53.0321 47.2796 52.6163 46.8333C55.003 44.3106 56.3641 40.9891 56.434 37.5169C56.5035 33.773 55.0887 30.1537 52.4986 27.4495C49.9085 24.7452 46.3537 23.1756 42.6103 23.0836H26.3173C26.9115 22.0737 27.3918 20.9192 27.7274 19.6846L27.7428 19.5891L27.7305 19.5922ZM4.01454 25.9253C5.01919 26.9498 6.16974 27.8203 7.42892 28.5084L7.50896 28.5392V86.4266C7.50775 87.3536 7.68944 88.2718 8.04364 89.1285C8.39784 89.9851 8.91757 90.7635 9.57308 91.419C10.2286 92.0746 11.007 92.5943 11.8637 92.9485C12.7204 93.3027 13.6385 93.4844 14.5656 93.4832C18.3833 93.4832 21.5421 90.3243 21.6037 86.3619V65.2907H31.3696L33.8726 68.8498H25.0858V86.4235C24.6363 100.004 4.47944 100.004 4.01454 86.4235V25.9253ZM25.0858 26.5657H42.678C44.0715 26.5604 45.4523 26.8309 46.7408 27.3618C48.0293 27.8926 49.1999 28.6732 50.1853 29.6586C51.1707 30.644 51.9513 31.8147 52.4821 33.1031C53.013 34.3916 53.2836 35.7724 53.2783 37.1659C53.2783 40.1154 52.0929 42.7786 50.1687 44.6874C49.1228 43.9746 47.9844 43.408 46.7851 43.0033C47.717 42.3567 48.4782 41.4937 49.0031 40.4882C49.5281 39.4827 49.8013 38.3649 49.7992 37.2306C49.798 36.2966 49.6129 35.3721 49.2543 34.5096C48.8958 33.6472 48.3709 32.8639 47.7096 32.2043C47.0484 31.5448 46.2637 31.0219 45.4003 30.6657C44.537 30.3094 43.6119 30.1266 42.678 30.1278H28.5833V44.2872H34.9348C33.4405 45.2008 32.1259 46.3798 31.0556 47.7662H25.0889L25.0858 26.5657ZM21.5421 28.0589V51.3438H29.079C28.6645 52.4655 28.3894 53.634 28.26 54.8228H18.0446V29.6137C19.3746 29.2134 20.5292 28.6839 21.5883 28.025L21.5421 28.0589ZM11.0065 29.8199C11.9517 30.0601 13.0262 30.174 14.1345 30.174H14.5686V58.3172H28.3277C28.5032 59.5026 28.808 60.6571 29.3068 61.7963H18.0507V86.4266C18.0387 87.353 17.6707 88.2394 17.023 88.9019C16.3754 89.5645 15.4977 89.9525 14.5717 89.9857C14.1095 89.9913 13.6506 89.9058 13.2215 89.734C12.7923 89.5622 12.4013 89.3074 12.0707 88.9842C11.7401 88.6611 11.4765 88.2759 11.2949 87.8508C11.1134 87.4256 11.0175 86.9689 11.0126 86.5066L11.0065 29.8199ZM32.0777 33.6069H42.6133C44.5868 33.6069 46.1724 35.1955 46.1724 37.1659C46.1724 39.1548 44.6638 40.7897 42.678 40.7897L32.0777 40.725V33.6069Z" fill="#152254"/>
<path d="M272.762 23.9953H288.852C291.474 23.9953 293.859 23.0304 295.719 21.1407C297.559 19.2719 298.5 16.9043 298.5 14.3071C298.5 11.6744 297.521 9.30365 295.679 7.4327C293.853 5.57858 291.507 4.53723 288.852 4.53723H237.376C234.716 4.53723 232.318 5.54546 230.468 7.47572C228.667 9.35485 227.729 11.7122 227.729 14.3071C227.729 16.9043 228.67 19.2719 230.51 21.1407C232.37 23.0304 234.755 23.9953 237.376 23.9953H253.467V87.4731C253.467 90.1103 254.432 92.5124 256.331 94.39C258.166 96.205 260.499 97.2021 263.114 97.2021C265.73 97.2021 268.063 96.205 269.898 94.39C271.797 92.5124 272.762 90.1103 272.762 87.4731V23.9953Z" stroke="#152254" stroke-width="9" stroke-linecap="round" stroke-linejoin="round"/>
<rect x="101.84" y="4.53723" width="23.0745" height="95.7926" rx="11.5372" stroke="#152254" stroke-width="9"/>
<path d="M185.314 14.5107C165.018 14.5107 148.564 30.9645 148.564 51.2607C148.564 71.5568 165.018 88.0107 185.314 88.0107C205.61 88.0107 222.064 71.5568 222.064 51.2607C222.064 30.9645 205.61 14.5107 185.314 14.5107ZM185.641 33.6169C192.541 33.4663 199.374 39.1166 201.352 46.5372C209.202 45.764 213.594 56.2145 207.56 61.5163H162.327C156.509 51.6286 163.687 38.4703 174.183 41.0233C177.339 35.8869 181.501 33.7071 185.64 33.6167L185.641 33.6169Z" fill="#152254"/>
</svg>
