<svg width="408" height="109" viewBox="0 0 408 109" fill="none" xmlns="http://www.w3.org/2000/svg">
<path d="M226.533 23.9581H242.624C245.245 23.9581 247.63 22.9932 249.49 21.1035C251.33 19.2346 252.271 16.8671 252.271 14.2699C252.271 11.6372 251.292 9.26642 249.45 7.39547C247.625 5.54134 245.279 4.5 242.624 4.5H191.148C188.487 4.5 186.09 5.50823 184.239 7.43849C182.438 9.31762 181.5 11.6749 181.5 14.2699C181.5 16.8671 182.441 19.2346 184.281 21.1035C186.141 22.9932 188.526 23.9581 191.148 23.9581H207.238V87.4358C207.238 90.0731 208.203 92.4752 210.102 94.3528C211.937 96.1678 214.27 97.1649 216.886 97.1649C219.501 97.1649 221.834 96.1678 223.67 94.3528C225.568 92.4752 226.533 90.0731 226.533 87.4358V23.9581Z" stroke="#000051" stroke-width="9" stroke-linecap="round" stroke-linejoin="round"/>
<g filter="url(#filter0_d)">
<path d="M15.9406 3C13.0778 3.02959 10.292 3.93062 7.95418 5.5831L8.00344 5.55232C5.63317 7.21249 3.83191 9.56258 2.84473 12.2828C1.85754 15.0031 1.73237 17.9615 2.48625 20.7554L2.45546 20.6599V87.4327C2.45546 95.2405 8.75774 101.527 16.5502 101.527C24.3426 101.527 30.6449 95.2405 30.6449 87.4327V73.338H38.311L53.7697 95.4345C54.821 96.9552 56.163 98.2527 57.7181 99.2523C59.2733 100.252 61.011 100.934 62.831 101.259C64.651 101.583 66.5172 101.545 68.3222 101.145C70.1272 100.745 71.8352 99.992 73.3477 98.9289C74.867 97.8781 76.1631 96.5368 77.1613 94.9824C78.1595 93.428 78.8399 91.6913 79.1634 89.8725C79.4868 88.0538 79.4469 86.189 79.0458 84.3857C78.6448 82.5825 77.8905 80.8765 76.8267 79.3663L67.0454 65.3824C71.0713 62.0826 74.3136 57.9293 76.5377 53.2228C78.7618 48.5164 79.9121 43.3745 79.9055 38.169C79.9055 18.7511 64.0313 3.01847 44.6749 3.01847H16.3562L15.9406 3ZM25.4325 6.55908H44.6749C62.1224 6.83309 76.1371 21.1987 75.863 38.6462C75.7925 43.1286 74.771 47.545 72.8662 51.6031C70.9613 55.6612 68.2165 59.2686 64.8133 62.1867L62.9383 59.5235C67.3044 55.79 70.4213 50.8079 71.8691 45.2486C73.3169 39.6892 73.0259 33.8197 71.0355 28.4308C69.0469 23.0398 65.4535 18.3879 60.7397 15.102C56.0258 11.8161 50.4179 10.0541 44.6718 10.0535H28.2834C28.0688 9.68077 27.8387 9.31716 27.5938 8.96362L27.6246 9.01288C26.9927 8.12013 26.2614 7.30208 25.4448 6.57448L25.4325 6.55908ZM29.7151 13.5356H44.6749C58.2893 13.5356 69.3052 24.5515 69.3052 38.1659C69.3091 41.6686 68.5642 45.1316 67.1205 48.3229C65.6767 51.5142 63.5674 54.36 60.934 56.6695L58.9297 53.8C73.1691 40.7644 63.9635 17.0454 44.6749 17.03H30.1615C30.16 15.8175 30.0037 14.6101 29.6966 13.4371L29.7151 13.5356ZM29.7305 20.5922H44.6749C46.9891 20.6386 49.2715 21.1411 51.3912 22.0711C53.5108 23.001 55.4262 24.34 57.0275 26.0114C58.6289 27.6828 59.8847 29.6537 60.723 31.8113C61.5614 33.9688 61.9658 36.2706 61.913 38.5847C61.8186 43.1319 59.9749 47.4678 56.7653 50.6905L55.7555 49.2619C55.413 48.7572 55.0321 48.2796 54.6163 47.8333C57.003 45.3106 58.3641 41.9891 58.434 38.5169C58.5035 34.773 57.0887 31.1537 54.4986 28.4495C51.9085 25.7452 48.3537 24.1756 44.6103 24.0836H28.3173C28.9115 23.0737 29.3918 21.9192 29.7274 20.6846L29.7428 20.5891L29.7305 20.5922ZM6.01454 26.9253C7.01919 27.9498 8.16974 28.8203 9.42892 29.5084L9.50897 29.5392V87.4266C9.50775 88.3536 9.68944 89.2718 10.0436 90.1285C10.3978 90.9851 10.9176 91.7635 11.5731 92.419C12.2286 93.0746 13.007 93.5943 13.8637 93.9485C14.7204 94.3027 15.6385 94.4844 16.5656 94.4832C20.3833 94.4832 23.5421 91.3243 23.6037 87.3619V66.2907H33.3696L35.8726 69.8498H27.0858V87.4235C26.6363 101.004 6.47944 101.004 6.01454 87.4235V26.9253ZM27.0858 27.5657H44.678C46.0715 27.5604 47.4523 27.8309 48.7408 28.3618C50.0293 28.8926 51.1999 29.6732 52.1853 30.6586C53.1707 31.644 53.9513 32.8147 54.4821 34.1031C55.013 35.3916 55.2836 36.7724 55.2783 38.1659C55.2783 41.1154 54.0929 43.7786 52.1687 45.6874C51.1228 44.9746 49.9844 44.408 48.7851 44.0033C49.717 43.3567 50.4782 42.4937 51.0031 41.4882C51.5281 40.4827 51.8013 39.3649 51.7992 38.2306C51.798 37.2966 51.6129 36.3721 51.2543 35.5096C50.8958 34.6472 50.3709 33.8639 49.7096 33.2043C49.0484 32.5448 48.2637 32.0219 47.4003 31.6657C46.537 31.3094 45.6119 31.1266 44.678 31.1278H30.5833V45.2872H36.9348C35.4405 46.2008 34.1259 47.3798 33.0556 48.7662H27.0889L27.0858 27.5657ZM23.5421 29.0589V52.3438H31.079C30.6645 53.4655 30.3894 54.6339 30.26 55.8228H20.0446V30.6137C21.3746 30.2134 22.5292 29.6839 23.5883 29.025L23.5421 29.0589ZM13.0065 30.8199C13.9517 31.0601 15.0262 31.174 16.1345 31.174H16.5686V59.3172H30.3277C30.5032 60.5026 30.808 61.6571 31.3068 62.7963H20.0507V87.4266C20.0387 88.353 19.6707 89.2394 19.023 89.9019C18.3754 90.5645 17.4977 90.9525 16.5717 90.9857C16.1095 90.9913 15.6506 90.9058 15.2215 90.734C14.7923 90.5622 14.4013 90.3074 14.0707 89.9842C13.7401 89.6611 13.4765 89.2759 13.2949 88.8508C13.1134 88.4256 13.0175 87.9689 13.0126 87.5066L13.0065 30.8199ZM34.0777 34.6069H44.6133C46.5868 34.6069 48.1724 36.1955 48.1724 38.1659C48.1724 40.1548 46.6638 41.7897 44.678 41.7897L34.0777 41.725V34.6069Z" fill="#000051"/>
</g>
<path d="M388.528 41.3793H395.604C397.591 41.3793 399.442 40.6349 400.868 39.1865C402.273 37.7588 402.997 35.9278 402.997 33.9626C402.997 31.9619 402.241 30.1336 400.845 28.7158C399.466 27.3148 397.648 26.5 395.604 26.5H366.665C364.638 26.5 362.775 27.2817 361.359 28.7588C359.992 30.1848 359.271 31.9996 359.271 33.9626C359.271 35.9278 359.995 37.7588 361.401 39.1865C362.827 40.6349 364.678 41.3793 366.665 41.3793H373.74V75.0946C373.74 77.0879 374.483 78.9475 375.935 80.3839C377.324 81.7577 379.129 82.5343 381.134 82.5343C383.139 82.5343 384.945 81.7577 386.334 80.3839C387.786 78.9475 388.528 77.0879 388.528 75.0946V41.3793Z" stroke="#000051" stroke-width="9" stroke-linecap="round" stroke-linejoin="round"/>
<rect x="288.5" y="26.5" width="16.9123" height="57.7926" rx="8.45615" stroke="#000051" stroke-width="9"/>
<path d="M337.397 34.077C325.987 34.077 316.737 43.327 316.737 54.7369C316.737 66.1469 325.987 75.3968 337.397 75.3968C348.807 75.3968 358.057 66.1469 358.057 54.7369C358.057 43.327 348.807 34.077 337.397 34.077ZM337.581 44.818C341.46 44.7334 345.301 47.9098 346.413 52.0815C350.826 51.6469 353.295 57.5219 349.903 60.5024H324.474C321.203 54.9438 325.239 47.5465 331.14 48.9817C332.914 46.0942 335.253 44.8688 337.58 44.818L337.581 44.818Z" fill="#000051"/>
<path d="M342.471 51.0763L340.559 48.9896L336.034 53.8375L334.273 51.933L332.352 54.0109L336.025 57.9844L342.471 51.0763Z" fill="#5AE1E0"/>
<path d="M94 32.887C94 29.0391 94.7312 25.4289 96.1935 22.0565C97.6559 18.6841 99.6344 15.7441 102.129 13.2364C104.667 10.6855 107.613 8.67503 110.968 7.20502C114.323 5.73501 117.914 5 121.742 5H154.887C160.027 5 164.194 9.16666 164.194 14.3065V14.3065C164.194 19.4463 160.027 23.613 154.887 23.613H121.742C120.452 23.613 119.247 23.8508 118.129 24.3264C117.011 24.802 116.022 25.4721 115.161 26.3368C114.344 27.1583 113.699 28.1311 113.226 29.2552C112.753 30.3794 112.516 31.59 112.516 32.887C112.516 34.1841 112.753 35.4163 113.226 36.5837C113.699 37.7078 114.344 38.7022 115.161 39.5669C116.022 40.3884 117.011 41.037 118.129 41.5126C119.247 41.9881 120.452 42.2259 121.742 42.2259H140.258C144.086 42.2259 147.677 42.9609 151.032 44.431C154.43 45.8577 157.376 47.8466 159.871 50.3975C162.409 52.9052 164.387 55.8668 165.806 59.2824C167.269 62.6548 168 66.265 168 70.113C168 73.9609 167.269 77.5711 165.806 80.9435C164.387 84.3159 162.409 87.2775 159.871 89.8285C157.376 92.3361 154.43 94.325 151.032 95.795C147.677 97.265 144.086 98 140.258 98H108.468C103.328 98 99.1613 93.8333 99.1613 88.6935V88.6935C99.1613 83.5537 103.328 79.387 108.468 79.387H140.258C141.548 79.387 142.753 79.1492 143.871 78.6736C144.989 78.198 145.957 77.5495 146.774 76.728C147.634 75.8633 148.301 74.8689 148.774 73.7448C149.247 72.6206 149.484 71.41 149.484 70.113C149.484 68.8159 149.247 67.6053 148.774 66.4812C148.301 65.357 147.634 64.3842 146.774 63.5628C145.957 62.698 144.989 62.0279 143.871 61.5523C142.753 61.0767 141.548 60.8389 140.258 60.8389H121.742C117.914 60.8389 114.323 60.1039 110.968 58.6339C107.613 57.1639 104.667 55.175 102.129 52.6674C99.6344 50.1165 97.6559 47.1548 96.1935 43.7824C94.7312 40.3668 94 36.735 94 32.887Z" stroke="#000051" stroke-width="9"/>
<defs>
<filter id="filter0_d" x="0" y="0" width="87.9055" height="108.527" filterUnits="userSpaceOnUse" color-interpolation-filters="sRGB">
<feFlood flood-opacity="0" result="BackgroundImageFix"/>
<feColorMatrix in="SourceAlpha" type="matrix" values="0 0 0 0 0 0 0 0 0 0 0 0 0 0 0 0 0 0 127 0"/>
<feOffset dx="3" dy="2"/>
<feGaussianBlur stdDeviation="2.5"/>
<feColorMatrix type="matrix" values="0 0 0 0 0.352941 0 0 0 0 0.882353 0 0 0 0 0.878431 0 0 0 1 0"/>
<feBlend mode="normal" in2="BackgroundImageFix" result="effect1_dropShadow"/>
<feBlend mode="normal" in="SourceGraphic" in2="effect1_dropShadow" result="shape"/>
</filter>
</defs>
</svg>
