<svg width="313" height="115" viewBox="0 0 313 115" fill="none" xmlns="http://www.w3.org/2000/svg">
<g filter="url(#filter0_d)">
<path d="M197 49.9716L193.598 46.2598L185.549 54.8832L182.417 51.4955L179 55.1917L185.534 62.2598L197 49.9716Z" fill="#5AE1E0"/>
<path d="M15.9406 5C13.0778 5.02959 10.292 5.93062 7.95418 7.5831L8.00344 7.55232C5.63317 9.21249 3.83191 11.5626 2.84473 14.2828C1.85754 17.0031 1.73237 19.9615 2.48625 22.7554L2.45546 22.6599V89.4327C2.45546 97.2405 8.75774 103.527 16.5502 103.527C24.3426 103.527 30.6449 97.2405 30.6449 89.4327V75.338H38.311L53.7697 97.4345C54.821 98.9552 56.163 100.253 57.7181 101.252C59.2733 102.252 61.011 102.934 62.831 103.259C64.651 103.583 66.5172 103.545 68.3222 103.145C70.1272 102.745 71.8352 101.992 73.3477 100.929C74.867 99.8781 76.1631 98.5368 77.1613 96.9824C78.1595 95.428 78.8399 93.6913 79.1634 91.8725C79.4868 90.0538 79.4469 88.189 79.0458 86.3857C78.6448 84.5825 77.8905 82.8765 76.8267 81.3663L67.0454 67.3824C71.0713 64.0826 74.3136 59.9293 76.5377 55.2228C78.7618 50.5164 79.9121 45.3745 79.9055 40.169C79.9055 20.7511 64.0313 5.01847 44.6749 5.01847H16.3562L15.9406 5ZM25.4325 8.55908H44.6749C62.1224 8.83309 76.1371 23.1987 75.863 40.6462C75.7925 45.1286 74.771 49.545 72.8662 53.6031C70.9613 57.6612 68.2165 61.2686 64.8133 64.1867L62.9383 61.5235C67.3044 57.79 70.4213 52.8079 71.8691 47.2486C73.3169 41.6892 73.0259 35.8197 71.0355 30.4308C69.0469 25.0398 65.4535 20.3879 60.7397 17.102C56.0258 13.8161 50.4179 12.0541 44.6718 12.0535H28.2834C28.0688 11.6808 27.8387 11.3172 27.5938 10.9636L27.6246 11.0129C26.9927 10.1201 26.2614 9.30208 25.4448 8.57447L25.4325 8.55908ZM29.7151 15.5356H44.6749C58.2893 15.5356 69.3052 26.5515 69.3052 40.1659C69.3091 43.6686 68.5642 47.1316 67.1205 50.3229C65.6767 53.5142 63.5674 56.3599 60.934 58.6695L58.9297 55.8C73.1691 42.7644 63.9635 19.0454 44.6749 19.03H30.1615C30.16 17.8175 30.0037 16.6101 29.6966 15.4371L29.7151 15.5356ZM29.7305 22.5922H44.6749C46.9891 22.6386 49.2715 23.1411 51.3912 24.0711C53.5108 25.001 55.4262 26.34 57.0275 28.0114C58.6289 29.6828 59.8847 31.6537 60.723 33.8113C61.5614 35.9688 61.9658 38.2706 61.913 40.5847C61.8186 45.1319 59.9749 49.4678 56.7653 52.6905L55.7555 51.2619C55.413 50.7572 55.0321 50.2796 54.6163 49.8333C57.003 47.3106 58.3641 43.9891 58.434 40.5169C58.5035 36.773 57.0887 33.1537 54.4986 30.4495C51.9085 27.7452 48.3537 26.1756 44.6103 26.0836H28.3173C28.9115 25.0737 29.3918 23.9192 29.7274 22.6846L29.7428 22.5891L29.7305 22.5922ZM6.01454 28.9253C7.01919 29.9498 8.16974 30.8203 9.42892 31.5084L9.50896 31.5392V89.4266C9.50775 90.3536 9.68944 91.2718 10.0436 92.1285C10.3978 92.9851 10.9176 93.7635 11.5731 94.419C12.2286 95.0746 13.007 95.5943 13.8637 95.9485C14.7204 96.3027 15.6385 96.4844 16.5656 96.4832C20.3833 96.4832 23.5421 93.3243 23.6037 89.3619V68.2907H33.3696L35.8726 71.8498H27.0858V89.4235C26.6363 103.004 6.47944 103.004 6.01454 89.4235V28.9253ZM27.0858 29.5657H44.678C46.0715 29.5604 47.4523 29.8309 48.7408 30.3618C50.0293 30.8926 51.1999 31.6732 52.1853 32.6586C53.1707 33.644 53.9513 34.8147 54.4821 36.1031C55.013 37.3916 55.2836 38.7724 55.2783 40.1659C55.2783 43.1154 54.0929 45.7786 52.1687 47.6874C51.1228 46.9746 49.9844 46.408 48.7851 46.0033C49.717 45.3567 50.4782 44.4937 51.0031 43.4882C51.5281 42.4827 51.8013 41.3649 51.7992 40.2306C51.798 39.2966 51.6129 38.3721 51.2543 37.5096C50.8958 36.6472 50.3709 35.8639 49.7096 35.2043C49.0484 34.5448 48.2637 34.0219 47.4003 33.6657C46.537 33.3094 45.6119 33.1266 44.678 33.1278H30.5833V47.2872H36.9348C35.4405 48.2008 34.1259 49.3798 33.0556 50.7662H27.0889L27.0858 29.5657ZM23.5421 31.0589V54.3438H31.079C30.6645 55.4655 30.3894 56.634 30.26 57.8228H20.0446V32.6137C21.3746 32.2134 22.5292 31.6839 23.5883 31.025L23.5421 31.0589ZM13.0065 32.8199C13.9517 33.0601 15.0262 33.174 16.1345 33.174H16.5686V61.3172H30.3277C30.5032 62.5026 30.808 63.6571 31.3068 64.7963H20.0507V89.4266C20.0387 90.353 19.6707 91.2394 19.023 91.9019C18.3754 92.5645 17.4977 92.9525 16.5717 92.9857C16.1095 92.9913 15.6506 92.9058 15.2215 92.734C14.7923 92.5622 14.4013 92.3074 14.0707 91.9842C13.7401 91.6611 13.4765 91.2759 13.2949 90.8508C13.1134 90.4256 13.0175 89.9689 13.0126 89.5066L13.0065 32.8199ZM34.0777 36.6069H44.6133C46.5868 36.6069 48.1724 38.1955 48.1724 40.1659C48.1724 42.1548 46.6638 43.7897 44.678 43.7897L34.0777 43.725V36.6069Z" fill="#000051"/>
<path d="M274.762 26.9953H290.852C293.474 26.9953 295.859 26.0304 297.719 24.1407C299.559 22.2719 300.5 19.9043 300.5 17.3071C300.5 14.6744 299.521 12.3037 297.679 10.4327C295.853 8.57858 293.507 7.53723 290.852 7.53723H239.376C236.716 7.53723 234.318 8.54546 232.468 10.4757C230.667 12.3548 229.729 14.7122 229.729 17.3071C229.729 19.9043 230.67 22.2719 232.51 24.1407C234.37 26.0304 236.755 26.9953 239.376 26.9953H255.467V90.4731C255.467 93.1103 256.432 95.5124 258.331 97.39C260.166 99.205 262.499 100.202 265.114 100.202C267.73 100.202 270.063 99.205 271.898 97.39C273.797 95.5124 274.762 93.1103 274.762 90.4731V26.9953Z" stroke="#000051" stroke-width="9" stroke-linecap="round" stroke-linejoin="round"/>
<rect x="103.84" y="7.53723" width="23.0745" height="95.7926" rx="11.5372" stroke="#000051" stroke-width="9"/>
<path d="M187.314 17.5107C167.018 17.5107 150.564 33.9645 150.564 54.2607C150.564 74.5568 167.018 91.0107 187.314 91.0107C207.61 91.0107 224.064 74.5568 224.064 54.2607C224.064 33.9645 207.61 17.5107 187.314 17.5107ZM187.641 36.6169C194.541 36.4663 201.374 42.1166 203.352 49.5372C211.202 48.764 215.594 59.2145 209.56 64.5163H164.327C158.509 54.6286 165.687 41.4703 176.183 44.0233C179.339 38.8869 183.501 36.7071 187.64 36.6167L187.641 36.6169Z" fill="#000051"/>
</g>
<defs>
<filter id="filter0_d" x="0" y="0.0372314" width="313" height="114.793" filterUnits="userSpaceOnUse" color-interpolation-filters="sRGB">
<feFlood flood-opacity="0" result="BackgroundImageFix"/>
<feColorMatrix in="SourceAlpha" type="matrix" values="0 0 0 0 0 0 0 0 0 0 0 0 0 0 0 0 0 0 127 0"/>
<feOffset dx="3" dy="2"/>
<feGaussianBlur stdDeviation="2.5"/>
<feColorMatrix type="matrix" values="0 0 0 0 0.352941 0 0 0 0 0.882353 0 0 0 0 0.878431 0 0 0 1 0"/>
<feBlend mode="normal" in2="BackgroundImageFix" result="effect1_dropShadow"/>
<feBlend mode="normal" in="SourceGraphic" in2="effect1_dropShadow" result="shape"/>
</filter>
</defs>
</svg>
